<svg width="331" height="74" viewBox="0 0 331 74" fill="none" xmlns="http://www.w3.org/2000/svg">
<path d="M22.7432 1.66431V8.55001H8.67563V15.6578H21.7313V22.5188H8.67563V35.3688H0.588867V1.66431H22.7432Z" fill="#2F55D4"/>
<path d="M59.9604 28.7134L57.3608 22.5188L54.4815 15.6578L51.5034 8.55001L48.6159 1.66431H40.3563L37.4688 8.55001L34.4908 15.6578L31.6115 22.5188L29.0118 28.7134L26.223 35.3688H35.3546L37.6992 28.7134H50.9522L53.2968 35.3688H62.7492L59.9604 28.7134ZM39.871 22.5188L42.2896 15.6578L44.3298 9.85804L46.3618 15.6578L48.7804 22.5188H39.871Z" fill="#2F55D4"/>
<path d="M124.095 28.7134V35.3688H103.191V1.66431H111.072V28.7134H124.095Z" fill="#2F55D4"/>
<path d="M203.91 1.66431V18.9484L200.339 22.5188L196.061 26.7966L194.145 28.7134L192.039 30.8194L190.706 28.7134L186.815 22.5188L182.496 15.6578L181.081 13.4037V35.3688H173.241V1.66431H182.339L186.675 8.55001L191.142 15.6578L195.453 22.5188L196.061 23.4813V1.66431H203.91Z" fill="#2F55D4"/>
<path d="M96.9063 31.0486C94.8908 33.0148 92.3981 34.5038 89.6175 35.3676C87.8899 35.9023 86.0471 36.1902 84.1386 36.1902C82.23 36.1902 80.3872 35.9023 78.6596 35.3676C74.8589 34.1912 71.593 31.8301 69.3389 28.7122C67.9979 26.8777 67.0107 24.7799 66.4678 22.5176C66.147 21.2096 65.9824 19.844 65.9824 18.4372C65.9824 17.4911 66.0565 16.5615 66.2045 15.6566C66.6241 13.057 67.6195 10.6466 69.0592 8.54882C71.2474 5.37334 74.4476 2.93002 78.2154 1.66312C80.0664 1.02967 82.0655 0.692383 84.1386 0.692383C86.2117 0.692383 88.2107 1.02967 90.0617 1.66312C92.612 2.51869 94.9154 3.92546 96.8075 5.71886L91.3368 11.2883C90.2509 10.0625 88.9018 9.10823 87.3881 8.54882C86.4091 8.18685 85.3479 7.98939 84.2537 7.98939C83.1596 7.98939 82.1066 8.18685 81.1276 8.54882C78.1085 9.65118 75.7556 12.3166 74.8754 15.6566C74.6204 16.5944 74.4887 17.5816 74.4887 18.61C74.4887 19.992 74.7273 21.3083 75.1716 22.5176C76.241 25.4463 78.4622 27.7333 81.2346 28.7122C82.1806 29.0495 83.2007 29.2305 84.2537 29.2305C85.3067 29.2305 86.3268 29.0495 87.2729 28.7122C88.9594 28.1199 90.4402 27.034 91.5837 25.619L96.9063 31.0486Z" fill="#2F55D4"/>
<path d="M165.171 15.6566C164.751 13.057 163.756 10.6466 162.316 8.54882C160.128 5.37334 156.919 2.93002 153.152 1.66312C151.292 1.02967 149.302 0.692383 147.228 0.692383C145.155 0.692383 143.164 1.02967 141.305 1.66312C137.537 2.93002 134.337 5.37334 132.149 8.54882C130.709 10.6466 129.714 13.057 129.294 15.6566C129.146 16.5615 129.072 17.4911 129.072 18.4372C129.072 19.844 129.237 21.2096 129.558 22.5176C130.101 24.7799 131.088 26.8777 132.429 28.7122C134.683 31.8301 137.949 34.1912 141.758 35.3676C143.485 35.9023 145.32 36.1902 147.228 36.1902C149.137 36.1902 150.972 35.9023 152.699 35.3676C156.508 34.1912 159.774 31.8301 162.036 28.7122C163.377 26.8777 164.364 24.7799 164.907 22.5176C165.228 21.2096 165.393 19.844 165.393 18.4372C165.393 17.4911 165.319 16.5615 165.171 15.6566ZM156.418 22.5176C155.34 25.4463 153.094 27.7333 150.297 28.7122C149.334 29.0495 148.306 29.2305 147.245 29.2305C146.184 29.2305 145.155 29.0495 144.193 28.7122C141.388 27.7333 139.142 25.4463 138.064 22.5176C137.62 21.3083 137.373 19.992 137.373 18.61C137.373 17.5816 137.505 16.5944 137.768 15.6566C138.656 12.3166 141.034 9.65118 144.086 8.54882C145.081 8.18685 146.142 7.98939 147.245 7.98939C148.355 7.98939 149.417 8.18685 150.412 8.54882C153.448 9.65941 155.825 12.3166 156.714 15.6566C156.977 16.5944 157.109 17.5816 157.109 18.61C157.109 19.992 156.862 21.3083 156.418 22.5176Z" fill="#2F55D4"/>
<path d="M197.032 69.8377V72.3962H177.543V45.3964L181.064 41.9495V69.8377H197.032Z" fill="#2F55D4"/>
<path d="M244.681 69.8379L242.007 63.5363L240.757 60.5994L238.807 56.009L237.663 53.3189L232.357 40.8556L231.214 38.1572H227.487L226.344 40.8556L221.037 53.3189L219.894 56.009L217.944 60.5994L216.694 63.5363L214.012 69.8379L212.926 72.3964H216.48L217.525 69.8379L220.108 63.5363H238.256L240.839 69.8379L241.884 72.3964H245.767L244.681 69.8379ZM221.309 60.5994L223.193 56.009L224.295 53.3189L229.182 41.4067L234.068 53.3189L235.171 56.009L237.055 60.5994H221.309Z" fill="#2F55D4"/>
<path d="M288.093 60.5994C287.492 58.7649 286.266 57.1689 284.629 56.009C283.675 55.3344 282.573 54.7997 281.38 54.4624C282.104 54.1745 282.778 53.7878 283.387 53.3189C285.403 51.764 286.702 49.3454 286.702 46.6224C286.702 44.393 285.839 42.3693 284.415 40.8556C282.852 39.1938 280.631 38.1572 278.163 38.1572H265.453V72.3964H278.311C281.059 72.3964 283.543 71.4257 285.37 69.8379C287.229 68.242 288.422 66.0126 288.512 63.5363C288.521 63.4294 288.521 63.3224 288.521 63.2155C288.521 62.3106 288.372 61.4303 288.093 60.5994ZM268.703 40.8556H277.184C280.623 40.8556 283.412 43.6444 283.412 47.0831C283.412 50.5301 280.623 53.3189 277.184 53.3189H268.703V40.8556ZM268.703 69.8379V56.009H278.097C281.199 56.009 283.831 57.9258 284.81 60.5994C285.082 61.3234 285.23 62.1131 285.23 62.9276C285.23 63.1332 285.222 63.3389 285.205 63.5363C284.884 67.0656 281.824 69.8379 278.097 69.8379H268.703Z" fill="#2F55D4"/>
<path d="M330.912 63.5361V63.5854C330.912 65.9547 329.933 68.1347 328.304 69.8376C327.293 70.8989 326.034 71.7709 324.602 72.3961C322.99 73.1118 321.164 73.5149 319.222 73.5149C317.281 73.5149 315.454 73.1118 313.842 72.3961C312.411 71.7709 311.152 70.8989 310.14 69.8376C309.721 69.4016 309.342 68.9327 309.021 68.4391L311.374 66.6128C312.164 67.9784 313.464 69.1055 315.068 69.8376C316.359 70.43 317.84 70.7672 319.428 70.7672C321.016 70.7672 322.505 70.43 323.796 69.8376C326.495 68.5954 328.329 66.2426 328.37 63.5361V63.4455C328.37 62.4337 328.123 61.4794 327.663 60.5991C326.437 58.2216 323.714 56.4858 320.456 56.1815C320.218 56.1568 319.971 56.1403 319.724 56.1403C319.716 56.1321 319.699 56.1321 319.691 56.1403C319.346 56.1074 319 56.0663 318.663 56.0087C317.124 55.7537 315.701 55.2354 314.459 54.5197C313.85 54.1659 313.274 53.7628 312.756 53.3186C310.774 51.6157 309.556 49.2958 309.556 46.7373C309.556 44.5079 310.477 42.4677 312.016 40.8553C313.11 39.7118 314.517 38.7822 316.129 38.1569C317.577 37.5975 319.189 37.2849 320.884 37.2849C322.579 37.2849 324.191 37.5975 325.639 38.1569C327.251 38.7822 328.65 39.7118 329.744 40.8553C329.958 41.0692 330.155 41.2995 330.345 41.5381L327.638 43.6441C326.857 42.4348 325.647 41.4558 324.199 40.8553C323.179 40.4357 322.036 40.1971 320.826 40.1971C319.617 40.1971 318.474 40.4357 317.454 40.8553C314.813 41.9494 312.995 44.2775 312.995 46.9759C312.995 49.8799 315.101 52.3478 318.062 53.3186C318.531 53.4749 319.033 53.5901 319.543 53.6641C319.963 53.7217 320.39 53.7546 320.826 53.7546C320.835 53.7464 320.843 53.7546 320.851 53.7546C322.612 53.9603 324.249 54.5032 325.664 55.3012C326.05 55.5151 326.429 55.7537 326.783 56.0087C328.444 57.2098 329.703 58.7893 330.369 60.5991C330.715 61.5205 330.904 62.5077 330.912 63.5361Z" fill="#2F55D4"/>
</svg>
